<svg class="modal-details-bg" xmlns="http://www.w3.org/2000/svg" viewBox="0 0 65.66 82.05"><defs><style>.cls-m1{fill:#8548f6}</style></defs><g id="Слой_2" data-name="Слой 2" opacity=".1"><g id="Слой_1-2" data-name="Слой 1"><path class="cls-m1" d="M54.67 30.43a2.62 2.62 0 002.68-2.54L58 3.58a2.61 2.61 0 00-5.22-.15l-.68 24.31a2.63 2.63 0 002.54 2.69z"/><rect class="cls-m1" x="33.53" y=".65" width="5.01" height="4.66" rx="2.33" ry="2.33" transform="rotate(-41.85 36.043 2.99)"/><path class="cls-m1" d="M65.65 51.45a.92.92 0 000-.16c-2.2-1.09-3.61-2.88-5.08-4.36a26 26 0 01.06 4.2A27.52 27.52 0 0121 74.18a27.5 27.5 0 01-7-45.33 25.21 25.21 0 013.3-2.6c-2.13-.25-4.4-.18-6.63-1.25l-.12.11a32.63 32.63 0 008.24 53.61 32.63 32.63 0 0046.86-27.27z"/><rect class="cls-m1" x="11.59" y="12.25" width="25.25" height="5.13" rx="2.56" ry="2.56" transform="rotate(-45 24.215 14.81)"/><rect class="cls-m1" x="40.19" y="20.34" width="45.81" height="5.12" rx="2.56" ry="2.56" transform="rotate(-90 63.095 22.905)"/><circle cx="33.48" cy="48.25" r="21.27" fill="none" stroke="#8548f6" stroke-miterlimit="10" stroke-width="6"/></g></g></svg>