<svg class="modal-details-bg" xmlns="http://www.w3.org/2000/svg" viewBox="0 0 65.66 82.05">
                            <defs>
                                <style>
                                    .cls-m1 {
                                        fill: #8548f6;
                                        
                                    }

                                    .cls-m2 {
                                        fill: none;
                                        stroke: #8548f6;
                                        stroke-miterlimit: 10;
                                        stroke-width: 6px;
                                    }
                                    
                                    .allbg {
                                    opacity: 0.1
                                    }
                                    
                                </style>
                            </defs>
                            <title>Слой 1</title>
                            <g class="allbg" id="Слой_2" data-name="Слой 2">
                                <g id="Слой_1-2" data-name="Слой 1">
                                    <path class="cls-m1"
                                        d="M54.67,30.43a2.62,2.62,0,0,0,2.68-2.54L58,3.58a2.61,2.61,0,0,0-5.22-.15l-.68,24.31a2.63,2.63,0,0,0,2.54,2.69Z" />
                                    <rect class="cls-m1" x="33.53" y="0.65" width="5.01" height="4.66" rx="2.33"
                                        ry="2.33" transform="translate(7.2 24.81) rotate(-41.85)" />
                                    <path class="cls-m1"
                                        d="M65.65,51.45a.92.92,0,0,0,0-.16c-2.2-1.09-3.61-2.88-5.08-4.36a26,26,0,0,1,.06,4.2A27.52,27.52,0,0,1,21,74.18a27.5,27.5,0,0,1-7-45.33,25.21,25.21,0,0,1,3.3-2.6C15.17,26,12.9,26.07,10.67,25l-.12.11a32.63,32.63,0,0,0,8.24,53.61A32.63,32.63,0,0,0,65.65,51.45Z" />
                                    <rect class="cls-m1" x="11.59" y="12.25" width="25.25" height="5.13" rx="2.56"
                                        ry="2.56" transform="translate(-3.38 21.46) rotate(-45)" />
                                    <rect class="cls-m1" x="40.19" y="20.34" width="45.81" height="5.12" rx="2.56"
                                        ry="2.56" transform="translate(40.19 86) rotate(-90)" />
                                    <circle class="cls-m2" cx="33.48" cy="48.25" r="21.27" />
                                </g>
                            </g>
                        </svg>